{
	"asset":{
		"version":"2.0",
		"generator":"Created using the official Cinema 4D glTF Exporter 1.000x284978"
	},
	"scenes":[{
		"nodes":[0]
	}],
	"nodes":[{
		"name":"earbud-l.1",
		"translation":[741.3162841796875,
		654.67431640625,
		-492.7166442871094],
		"rotation":[0.0,
		1.2246468525851679e-16,
		0.0,
		-1.0],
		"scale":[1.0,
		1.0,
		1.0],
		"children":[1,
		2,
		3,
		4,
		5,
		6,
		7,
		8,
		9]
	},
	{
		"name":"earbud-l.1-Glass Tempered Coated",
		"mesh":0
	},
	{
		"name":"earbud-l.1-Glass Tempered Coated",
		"mesh":1
	},
	{
		"name":"earbud-l.1-green-plastic",
		"mesh":2
	},
	{
		"name":"earbud-l.1-yellow-plastic",
		"mesh":3
	},
	{
		"name":"earbud-l.1-red-plastic",
		"mesh":4
	},
	{
		"name":"earbud-l.1-Plastic Black - Glossy",
		"mesh":5
	},
	{
		"name":"earbud-l.1-Glass Frosted",
		"mesh":6
	},
	{
		"name":"earbud-l.1-Aluminum - Brushed - Radial Pattern",
		"mesh":7
	},
	{
		"name":"earbud-l.1-Bronze 02",
		"mesh":8
	}],
	"meshes":[{
		"name":"earbud-l.1-Glass Tempered Coated",
		"primitives":[{
			"attributes":{
				"POSITION":1,
				"NORMAL":2,
				"TEXCOORD_0":3
			},
			"indices":0,
			"material":0
		}]
	},
	{
		"name":"earbud-l.1-Glass Tempered Coated",
		"primitives":[{
			"attributes":{
				"POSITION":5,
				"NORMAL":6,
				"TEXCOORD_0":7
			},
			"indices":4,
			"material":0
		}]
	},
	{
		"name":"earbud-l.1-green-plastic",
		"primitives":[{
			"attributes":{
				"POSITION":9,
				"NORMAL":10,
				"TEXCOORD_0":11
			},
			"indices":8,
			"material":1
		}]
	},
	{
		"name":"earbud-l.1-yellow-plastic",
		"primitives":[{
			"attributes":{
				"POSITION":13,
				"NORMAL":14,
				"TEXCOORD_0":15
			},
			"indices":12,
			"material":2
		}]
	},
	{
		"name":"earbud-l.1-red-plastic",
		"primitives":[{
			"attributes":{
				"POSITION":17,
				"NORMAL":18,
				"TEXCOORD_0":19
			},
			"indices":16,
			"material":3
		}]
	},
	{
		"name":"earbud-l.1-Plastic Black - Glossy",
		"primitives":[{
			"attributes":{
				"POSITION":21,
				"NORMAL":22,
				"TEXCOORD_0":23
			},
			"indices":20,
			"material":4
		}]
	},
	{
		"name":"earbud-l.1-Glass Frosted",
		"primitives":[{
			"attributes":{
				"POSITION":25,
				"NORMAL":26,
				"TEXCOORD_0":27
			},
			"indices":24,
			"material":5
		}]
	},
	{
		"name":"earbud-l.1-Aluminum - Brushed - Radial Pattern",
		"primitives":[{
			"attributes":{
				"POSITION":29,
				"NORMAL":30,
				"TEXCOORD_0":31
			},
			"indices":28,
			"material":6
		}]
	},
	{
		"name":"earbud-l.1-Bronze 02",
		"primitives":[{
			"attributes":{
				"POSITION":33,
				"NORMAL":34,
				"TEXCOORD_0":35
			},
			"indices":32,
			"material":7
		}]
	}],
	"accessors":[{
		"bufferView":0,
		"type":"SCALAR",
		"count":17832,
		"componentType":5123,
		"byteOffset":0,
		"min":[0],
		"max":[3689]
	},
	{
		"bufferView":1,
		"type":"VEC3",
		"count":3690,
		"componentType":5126,
		"byteOffset":0,
		"min":[-207.68931579589845,
		-276.3106994628906,
		-112.89141845703125],
		"max":[135.65016174316407,
		88.8825454711914,
		266.18841552734377]
	},
	{
		"bufferView":1,
		"type":"VEC3",
		"count":3690,
		"componentType":5126,
		"byteOffset":12,
		"min":[-0.9973437786102295,
		-0.9991875290870667,
		-0.999625027179718],
		"max":[0.9973437786102295,
		0.9991875290870667,
		0.9994375705718994]
	},
	{
		"bufferView":1,
		"type":"VEC2",
		"count":3690,
		"componentType":5126,
		"byteOffset":24,
		"min":[0.0,
		0.0],
		"max":[1.0,
		1.0]
	},
	{
		"bufferView":2,
		"type":"SCALAR",
		"count":13728,
		"componentType":5123,
		"byteOffset":0,
		"min":[0],
		"max":[2371]
	},
	{
		"bufferView":3,
		"type":"VEC3",
		"count":2372,
		"componentType":5126,
		"byteOffset":0,
		"min":[37.846702575683597,
		-734.3394775390625,
		-326.3306579589844],
		"max":[1133.181884765625,
		-335.09576416015627,
		382.6192321777344]
	},
	{
		"bufferView":3,
		"type":"VEC3",
		"count":2372,
		"componentType":5126,
		"byteOffset":12,
		"min":[-0.8339375257492065,
		-0.9961562752723694,
		-0.8007813096046448],
		"max":[0.9965000748634338,
		0.9957500696182251,
		0.9982187747955322]
	},
	{
		"bufferView":3,
		"type":"VEC2",
		"count":2372,
		"componentType":5126,
		"byteOffset":24,
		"min":[0.0,
		0.0],
		"max":[0.0,
		0.0]
	},
	{
		"bufferView":4,
		"type":"SCALAR",
		"count":1440,
		"componentType":5123,
		"byteOffset":0,
		"min":[0],
		"max":[291]
	},
	{
		"bufferView":5,
		"type":"VEC3",
		"count":292,
		"componentType":5126,
		"byteOffset":0,
		"min":[-73.36994934082031,
		-142.60140991210938,
		-75.82540130615235],
		"max":[-53.037174224853519,
		-116.2903060913086,
		-51.20227813720703]
	},
	{
		"bufferView":5,
		"type":"VEC3",
		"count":292,
		"componentType":5126,
		"byteOffset":12,
		"min":[-0.9363750219345093,
		-0.847281277179718,
		-0.9732813239097595],
		"max":[0.9363750219345093,
		0.8472188115119934,
		0.882437527179718]
	},
	{
		"bufferView":5,
		"type":"VEC2",
		"count":292,
		"componentType":5126,
		"byteOffset":24,
		"min":[0.0,
		0.0],
		"max":[1.0,
		1.0]
	},
	{
		"bufferView":6,
		"type":"SCALAR",
		"count":1440,
		"componentType":5123,
		"byteOffset":0,
		"min":[0],
		"max":[291]
	},
	{
		"bufferView":7,
		"type":"VEC3",
		"count":292,
		"componentType":5126,
		"byteOffset":0,
		"min":[-18.90497398376465,
		-182.08981323242188,
		-82.16169738769531],
		"max":[1.427799940109253,
		-155.77871704101563,
		-57.538570404052737]
	},
	{
		"bufferView":7,
		"type":"VEC3",
		"count":292,
		"componentType":5126,
		"byteOffset":12,
		"min":[-0.9363750219345093,
		-0.8472188115119934,
		-0.9732813239097595],
		"max":[0.9363750219345093,
		0.8472188115119934,
		0.882437527179718]
	},
	{
		"bufferView":7,
		"type":"VEC2",
		"count":292,
		"componentType":5126,
		"byteOffset":24,
		"min":[0.0,
		0.0],
		"max":[1.0,
		1.0]
	},
	{
		"bufferView":8,
		"type":"SCALAR",
		"count":1440,
		"componentType":5123,
		"byteOffset":0,
		"min":[0],
		"max":[291]
	},
	{
		"bufferView":9,
		"type":"VEC3",
		"count":292,
		"componentType":5126,
		"byteOffset":0,
		"min":[-46.12785339355469,
		-163.3643035888672,
		-78.85855102539063],
		"max":[-25.795080184936525,
		-137.05320739746095,
		-54.23542785644531]
	},
	{
		"bufferView":9,
		"type":"VEC3",
		"count":292,
		"componentType":5126,
		"byteOffset":12,
		"min":[-0.9363750219345093,
		-0.8472188115119934,
		-0.9732813239097595],
		"max":[0.9363750219345093,
		0.8472188115119934,
		0.882437527179718]
	},
	{
		"bufferView":9,
		"type":"VEC2",
		"count":292,
		"componentType":5126,
		"byteOffset":24,
		"min":[0.0,
		0.0],
		"max":[1.0,
		1.0]
	},
	{
		"bufferView":10,
		"type":"SCALAR",
		"count":42855,
		"componentType":5123,
		"byteOffset":0,
		"min":[0],
		"max":[7897]
	},
	{
		"bufferView":11,
		"type":"VEC3",
		"count":7898,
		"componentType":5126,
		"byteOffset":0,
		"min":[-185.3141326904297,
		-735.1520385742188,
		-315.17236328125],
		"max":[1132.4195556640626,
		290.431396484375,
		492.2309875488281]
	},
	{
		"bufferView":11,
		"type":"VEC3",
		"count":7898,
		"componentType":5126,
		"byteOffset":12,
		"min":[-0.999750018119812,
		-0.9997813105583191,
		-1.0],
		"max":[0.9978750348091126,
		0.9959375262260437,
		1.0]
	},
	{
		"bufferView":11,
		"type":"VEC2",
		"count":7898,
		"componentType":5126,
		"byteOffset":24,
		"min":[0.0,
		0.0],
		"max":[1.0,
		1.0]
	},
	{
		"bufferView":12,
		"type":"SCALAR",
		"count":1722,
		"componentType":5123,
		"byteOffset":0,
		"min":[0],
		"max":[401]
	},
	{
		"bufferView":13,
		"type":"VEC3",
		"count":402,
		"componentType":5126,
		"byteOffset":0,
		"min":[-155.17745971679688,
		-190.94659423828126,
		-125.74614715576172],
		"max":[141.79234313964845,
		96.4903564453125,
		192.53915405273438]
	},
	{
		"bufferView":13,
		"type":"VEC3",
		"count":402,
		"componentType":5126,
		"byteOffset":12,
		"min":[-0.8984375596046448,
		-0.7120000123977661,
		-0.8261563181877136],
		"max":[0.8984062671661377,
		0.7114687561988831,
		0.826593816280365]
	},
	{
		"bufferView":13,
		"type":"VEC2",
		"count":402,
		"componentType":5126,
		"byteOffset":24,
		"min":[0.0,
		0.0],
		"max":[1.0,
		1.0]
	},
	{
		"bufferView":14,
		"type":"SCALAR",
		"count":12810,
		"componentType":5123,
		"byteOffset":0,
		"min":[0],
		"max":[2501]
	},
	{
		"bufferView":15,
		"type":"VEC3",
		"count":2502,
		"componentType":5126,
		"byteOffset":0,
		"min":[-164.98939514160157,
		-207.41278076171876,
		-116.52074432373047],
		"max":[137.737548828125,
		87.32872772216797,
		208.21266174316407]
	},
	{
		"bufferView":15,
		"type":"VEC3",
		"count":2502,
		"componentType":5126,
		"byteOffset":12,
		"min":[-0.8984375596046448,
		-0.7120000123977661,
		-0.8265625238418579],
		"max":[0.8984375596046448,
		0.7120000123977661,
		0.8265625238418579]
	},
	{
		"bufferView":15,
		"type":"VEC2",
		"count":2502,
		"componentType":5126,
		"byteOffset":24,
		"min":[0.0,
		0.0],
		"max":[1.0,
		1.0]
	},
	{
		"bufferView":16,
		"type":"SCALAR",
		"count":10908,
		"componentType":5123,
		"byteOffset":0,
		"min":[0],
		"max":[2098]
	},
	{
		"bufferView":17,
		"type":"VEC3",
		"count":2099,
		"componentType":5126,
		"byteOffset":0,
		"min":[-110.22076416015625,
		-205.46607971191407,
		-88.40982055664063],
		"max":[92.7345962524414,
		41.50276184082031,
		71.66204071044922]
	},
	{
		"bufferView":17,
		"type":"VEC3",
		"count":2099,
		"componentType":5126,
		"byteOffset":12,
		"min":[-0.99937504529953,
		-0.999000072479248,
		-0.9998750686645508],
		"max":[0.99937504529953,
		0.999000072479248,
		0.9998750686645508]
	},
	{
		"bufferView":17,
		"type":"VEC2",
		"count":2099,
		"componentType":5126,
		"byteOffset":24,
		"min":[0.0,
		0.0],
		"max":[1.0,
		1.0]
	}],
	"bufferViews":[{
		"buffer":0,
		"byteOffset":0,
		"byteLength":35664,
		"target":34963
	},
	{
		"buffer":0,
		"byteOffset":35664,
		"byteLength":118080,
		"target":34962,
		"byteStride":32
	},
	{
		"buffer":1,
		"byteOffset":0,
		"byteLength":27456,
		"target":34963
	},
	{
		"buffer":1,
		"byteOffset":27456,
		"byteLength":75904,
		"target":34962,
		"byteStride":32
	},
	{
		"buffer":2,
		"byteOffset":0,
		"byteLength":2880,
		"target":34963
	},
	{
		"buffer":2,
		"byteOffset":2880,
		"byteLength":9344,
		"target":34962,
		"byteStride":32
	},
	{
		"buffer":3,
		"byteOffset":0,
		"byteLength":2880,
		"target":34963
	},
	{
		"buffer":3,
		"byteOffset":2880,
		"byteLength":9344,
		"target":34962,
		"byteStride":32
	},
	{
		"buffer":4,
		"byteOffset":0,
		"byteLength":2880,
		"target":34963
	},
	{
		"buffer":4,
		"byteOffset":2880,
		"byteLength":9344,
		"target":34962,
		"byteStride":32
	},
	{
		"buffer":5,
		"byteOffset":0,
		"byteLength":85710,
		"target":34963
	},
	{
		"buffer":5,
		"byteOffset":85712,
		"byteLength":252736,
		"target":34962,
		"byteStride":32
	},
	{
		"buffer":6,
		"byteOffset":0,
		"byteLength":3444,
		"target":34963
	},
	{
		"buffer":6,
		"byteOffset":3444,
		"byteLength":12864,
		"target":34962,
		"byteStride":32
	},
	{
		"buffer":7,
		"byteOffset":0,
		"byteLength":25620,
		"target":34963
	},
	{
		"buffer":7,
		"byteOffset":25620,
		"byteLength":80064,
		"target":34962,
		"byteStride":32
	},
	{
		"buffer":8,
		"byteOffset":0,
		"byteLength":21816,
		"target":34963
	},
	{
		"buffer":8,
		"byteOffset":21816,
		"byteLength":67168,
		"target":34962,
		"byteStride":32
	}],
	"buffers":[{
		"uri":"data:application/octet-stream;base64,",
		"byteLength":153744
	},
	{
		"uri":"data:application/octet-stream;base64,",
		"byteLength":103360
	},
	{
		"uri":"data:application/octet-stream;base64,",
		"byteLength":12224
	},
	{
		"uri":"data:application/octet-stream;base64,",
		"byteLength":12224
	},
	{
		"uri":"data:application/octet-stream;base64,",
		"byteLength":12224
	},
	{
		"uri":"data:application/octet-stream;base64,",
		"byteLength":338448
	},
	{
		"uri":"data:application/octet-stream;base64,",
		"byteLength":16308
	},
	{
		"uri":"data:application/octet-stream;base64,",
		"byteLength":105684
	},
	{
		"uri":"data:application/octet-stream;base64,",
		"byteLength":88984
	}],
	"materials":[{
		"pbrMetallicRoughness":{
			"baseColorFactor":[0.2188235294117647,
			0.26,
			0.14941176470588236,
			0.0],
			"metallicFactor":0.3,
			"roughnessFactor":0.0
		},
		"name":"Glass Tempered Coated",
		"emissiveFactor":[0.0,
		0.0,
		0.0],
		"alphaMode":"BLEND",
		"doubleSided":true
	},
	{
		"pbrMetallicRoughness":{
			"baseColorFactor":[0.24704999999999995,
			0.61,
			0.18299999999999998,
			1.0],
			"metallicFactor":1.0,
			"roughnessFactor":1.0
		},
		"name":"green-plastic",
		"emissiveFactor":[0.0,
		0.0,
		0.0],
		"alphaMode":"OPAQUE",
		"doubleSided":true
	},
	{
		"pbrMetallicRoughness":{
			"baseColorFactor":[0.8866000000000002,
			0.93,
			0.27899999999999999,
			1.0],
			"metallicFactor":1.0,
			"roughnessFactor":1.0
		},
		"name":"yellow-plastic",
		"emissiveFactor":[0.0,
		0.0,
		0.0],
		"alphaMode":"OPAQUE",
		"doubleSided":true
	},
	{
		"pbrMetallicRoughness":{
			"baseColorFactor":[0.61,
			0.18299999999999998,
			0.18299999999999998,
			1.0],
			"metallicFactor":1.0,
			"roughnessFactor":1.0
		},
		"name":"red-plastic",
		"emissiveFactor":[0.0,
		0.0,
		0.0],
		"alphaMode":"OPAQUE",
		"doubleSided":true
	},
	{
		"pbrMetallicRoughness":{
			"baseColorFactor":[0.1,
			0.1,
			0.1,
			1.0],
			"metallicFactor":0.8,
			"roughnessFactor":0.07
		},
		"name":"Plastic Black - Glossy",
		"emissiveFactor":[0.0,
		0.0,
		0.0],
		"alphaMode":"OPAQUE",
		"doubleSided":true
	},
	{
		"pbrMetallicRoughness":{
			"baseColorFactor":[0.8,
			0.8,
			0.8,
			0.13],
			"metallicFactor":1.0,
			"roughnessFactor":1.0
		},
		"name":"Glass Frosted",
		"emissiveFactor":[0.0,
		0.0,
		0.0],
		"alphaMode":"BLEND",
		"doubleSided":true
	},
	{
		"pbrMetallicRoughness":{
			"baseColorFactor":[0.45,
			0.45,
			0.45,
			1.0],
			"metallicFactor":0.26,
			"roughnessFactor":0.43
		},
		"name":"Aluminum - Brushed - Radial Pattern",
		"emissiveFactor":[0.0,
		0.0,
		0.0],
		"alphaMode":"OPAQUE",
		"doubleSided":true
	},
	{
		"pbrMetallicRoughness":{
			"baseColorFactor":[0.9693877551020408,
			0.929463934334064,
			0.7851239669421487,
			1.0],
			"metallicFactor":0.34,
			"roughnessFactor":0.35000000000000006
		},
		"name":"Bronze 02",
		"emissiveFactor":[0.0,
		0.0,
		0.0],
		"alphaMode":"OPAQUE",
		"doubleSided":true
	}]
}