<?xml version="1.0" encoding="UTF-8"?>
<svg id="Layer_1" data-name="Layer 1" xmlns="http://www.w3.org/2000/svg" viewBox="0 0 1149.188 333.558">
  <defs>
    <style>
      .cls-1 {
        fill: #fff;
      }
    </style>
  </defs>
  <path class="cls-1" d="M57.102,188.766c5.958,17.931,20.303,29.714,54.787,29.714,32.288,0,41.628-9.859,41.628-23.26,0-14.32-9.567-22.388-53.347-29.819C28.075,153.069,14.968,129.659,14.968,101.791c0-41.487,39.942-62.689,89.05-62.689,71.302,0,90.653,36.659,93.013,60.801h-50.487c-2.937-10.286-9.85-24.063-44.12-24.063-24.019,0-36.19,7.644-36.19,21.066,0,12.008,8.554,18.046,47.555,25.042,78.936,14.171,91.289,37.992,91.289,68.127,0,36.012-28.259,65.107-97.934,65.107-64.991,0-94.264-29.003-100.564-66.416h50.522Z"/>
  <path class="cls-1" d="M308.946,83.414h-73.125v-40.147h196.44v40.147h-72.865v167.603h-50.451V83.414Z"/>
  <path class="cls-1" d="M497.322,203.866l-18.129,47.15h-51.856l83.673-207.75h64.649l87.957,207.75h-54.523l-19.309-47.15h-92.462ZM575.692,163.459c-19.333-47.613-28.748-71.882-33.726-87.752h-.296c-4.648,15.54-15.679,47.135-31.297,87.752h65.319Z"/>
  <path class="cls-1" d="M755.657,170.956v80.061h-49.896V43.267h113.133c47.906,0,75.326,23.635,75.326,59.349,0,26.819-15.588,42.616-36.15,49.141,8.504,3.351,30.805,11.514,30.805,48.834v10.372c0,14.251-.26,30.237,2.619,40.055h-51.75c-3.469-9.144-3.881-21.425-3.881-43.479v-6.819c0-20.996-7.703-29.763-37.986-29.763h-42.219ZM755.657,133.146h51.955c24.479,0,35.082-8.823,35.082-26.34,0-16.421-10.863-25.729-34.646-25.729h-52.391v52.068Z"/>
  <path class="cls-1" d="M985.952,188.766c5.957,17.931,20.303,29.714,54.787,29.714,32.287,0,41.629-9.859,41.629-23.26,0-14.32-9.568-22.388-53.348-29.819-72.096-12.331-85.203-35.741-85.203-63.609,0-41.487,39.941-62.689,89.051-62.689,71.301,0,90.652,36.659,93.012,60.801h-50.486c-2.938-10.286-9.85-24.063-44.119-24.063-24.018,0-36.191,7.644-36.191,21.066,0,12.008,8.555,18.046,47.557,25.042,78.936,14.171,91.289,37.992,91.289,68.127,0,36.012-28.26,65.107-97.936,65.107-64.99,0-94.262-29.003-100.562-66.416h50.521Z"/>
</svg>